<svg width="28" height="28" viewBox="0 0 28 28" fill="none" xmlns="http://www.w3.org/2000/svg">
<path fill-rule="evenodd" clip-rule="evenodd" d="M12.8678 3.02157C13.5209 2.46742 14.4791 2.46742 15.1322 3.02157L23.8822 10.4458C24.2741 10.7783 24.5 11.2663 24.5 11.7802V22.7501C24.5 23.7166 23.7165 24.5001 22.75 24.5001H16.0417C15.5584 24.5001 15.1667 24.1083 15.1667 23.6251V16.3334H12.8333V23.6251C12.8333 24.1083 12.4416 24.5001 11.9583 24.5001H5.25C4.2835 24.5001 3.5 23.7166 3.5 22.7501V11.7802C3.5 11.2663 3.72591 10.7783 4.11779 10.4458L12.8678 3.02157ZM14 4.35596L5.25 11.7802L5.25 22.7501H11.0833V15.4584C11.0833 14.9752 11.4751 14.5834 11.9583 14.5834H16.0417C16.5249 14.5834 16.9167 14.9752 16.9167 15.4584V22.7501H22.75V11.7802L14 4.35596Z" fill="#8F9090"/>
</svg>
