<svg width="20" height="20" viewBox="0 0 20 20" fill="none" xmlns="http://www.w3.org/2000/svg">
<path d="M3.69439 4.43034C13.5428 3.0931 15.9698 3.25722 17.5002 5C19.0307 6.74278 18.6724 12.4881 16.8834 14.0871C15.0954 15.6861 7.33039 15.8381 4.87039 14.0871C2.27139 12.2361 3.77939 6.5421 3.69439 3.0931C3.74539 1.1631 1.65039 0.850098 1.65039 0.850098" stroke="#2B2B2B" stroke-width="1.5" stroke-linecap="round" stroke-linejoin="round"/>
<path d="M12.1562 8.71973H14.9293" stroke="#2B2B2B" stroke-width="1.5" stroke-linecap="round" stroke-linejoin="round"/>
<path fill-rule="evenodd" clip-rule="evenodd" d="M5.26424 18.1274C5.56424 18.1274 5.80824 18.3714 5.80824 18.6714C5.80824 18.9724 5.56424 19.2164 5.26424 19.2164C4.96324 19.2164 4.71924 18.9724 4.71924 18.6714C4.71924 18.3714 4.96324 18.1274 5.26424 18.1274Z" fill="#2B2B2B" stroke="#2B2B2B" stroke-width="1.5" stroke-linecap="round" stroke-linejoin="round"/>
<path fill-rule="evenodd" clip-rule="evenodd" d="M15.5958 18.1274C15.8968 18.1274 16.1408 18.3714 16.1408 18.6714C16.1408 18.9724 15.8968 19.2164 15.5958 19.2164C15.2958 19.2164 15.0518 18.9724 15.0518 18.6714C15.0518 18.3714 15.2958 18.1274 15.5958 18.1274Z" fill="#2B2B2B" stroke="#2B2B2B" stroke-width="1.5" stroke-linecap="round" stroke-linejoin="round"/>
</svg>
