<svg width="25" height="24" viewBox="0 0 25 24" fill="none" xmlns="http://www.w3.org/2000/svg">
<path fill-rule="evenodd" clip-rule="evenodd" d="M12.5003 2.5C9.46275 2.5 7.00037 4.96245 7.00037 8C7.00037 9.88946 7.95313 11.5564 9.40443 12.5466C6.03988 13.7791 3.61629 16.9629 3.50424 20.7277C3.49192 21.1417 3.81757 21.4873 4.2316 21.4997C4.64563 21.512 4.99126 21.1863 5.00358 20.7723C5.12372 16.7357 8.43422 13.5 12.5002 13.5C16.5662 13.5 19.8767 16.7357 19.9968 20.7723C20.0091 21.1863 20.3548 21.512 20.7688 21.4997C21.1828 21.4873 21.5085 21.1417 21.4961 20.7277C21.3841 16.963 18.9606 13.7791 15.5961 12.5466C17.0474 11.5564 18.0002 9.88949 18.0002 8C18.0002 4.96245 15.5378 2.5 12.5003 2.5ZM8.50037 8C8.50037 5.79085 10.2912 4 12.5003 4C14.7094 4 16.5002 5.79085 16.5002 8C16.5002 10.2092 14.7094 12 12.5003 12C10.2912 12 8.50037 10.2092 8.50037 8Z" fill="#4B84F1"/>
</svg>
